HIERARCHY
ROOT Hips
{
    OFFSET   0.000000   0.000000   0.000000
    CHANNELS 6 Xposition Yposition Zposition Zrotation Xrotation Yrotation
    JOINT Chest
    {
        OFFSET   0.000000   8.007230   0.000000
        CHANNELS 3 Zrotation Xrotation Yrotation
        JOINT Chest2
        {
            OFFSET   0.000000  22.077100   0.000000
            CHANNELS 3 Zrotation Xrotation Yrotation
            JOINT Neck
            {
                OFFSET   0.000000  23.254800   0.000000
                CHANNELS 3 Zrotation Xrotation Yrotation
                JOINT Head
                {
                    OFFSET   0.000010  14.370000   1.956600
                    CHANNELS 3 Zrotation Xrotation Yrotation
                    End Site
                    {
                        OFFSET   0.000000  19.566000   0.000000
                    }
                }
            }
            JOINT LeftCollar
            {
                OFFSET   3.911900  19.017000  -0.467062
                CHANNELS 3 Zrotation Xrotation Yrotation
                JOINT LeftShoulder
                {
                    OFFSET  10.383700   0.000000   0.000000
                    CHANNELS 3 Zrotation Xrotation Yrotation
                    JOINT LeftElbow
                    {
                        OFFSET  26.662100   0.001193   0.000835
                        CHANNELS 3 Zrotation Xrotation Yrotation
                        JOINT LeftWrist
                        {
                            OFFSET  28.869000  -0.000058  -0.000075
                            CHANNELS 3 Zrotation Xrotation Yrotation
                            JOINT LeftFinger0
                            {
                                OFFSET   2.044660  -2.323460   3.252850
                                CHANNELS 3 Zrotation Xrotation Yrotation
                                JOINT LeftFinger01
                                {
                                    OFFSET   3.088130   0.000000   0.000000
                                    CHANNELS 3 Zrotation Xrotation Yrotation
                                    JOINT LeftFinger02
                                    {
                                        OFFSET   2.639450   0.000000   0.000000
                                        CHANNELS 3 Zrotation Xrotation Yrotation
                                        End Site
                                        {
                                            OFFSET   2.582190   0.000000   0.000000
                                        }
                                    }
                                }
                            }
                            JOINT LeftFinger1
                            {
                                OFFSET   8.364480   0.000000   3.252850
                                CHANNELS 3 Zrotation Xrotation Yrotation
                                JOINT LeftFinger11
                                {
                                    OFFSET   4.646920   0.000000   0.000000
                                    CHANNELS 3 Zrotation Xrotation Yrotation
                                    JOINT LeftFinger12
                                    {
                                        OFFSET   2.323460   0.000000   0.000000
                                        CHANNELS 3 Zrotation Xrotation Yrotation
                                        End Site
                                        {
                                            OFFSET   2.273050   0.000000   0.000000
                                        }
                                    }
                                }
                            }
                            JOINT LeftFinger2
                            {
                                OFFSET   8.364490   0.000016   1.078090
                                CHANNELS 3 Zrotation Xrotation Yrotation
                                JOINT LeftFinger21
                                {
                                    OFFSET   5.111620   0.000000   0.000000
                                    CHANNELS 3 Zrotation Xrotation Yrotation
                                    JOINT LeftFinger22
                                    {
                                        OFFSET   2.788150   0.000012   0.000000
                                        CHANNELS 3 Zrotation Xrotation Yrotation
                                        End Site
                                        {
                                            OFFSET   2.727660   0.000000   0.000000
                                        }
                                    }
                                }
                            }
                            JOINT LeftFinger3
                            {
                                OFFSET   7.899780   0.000014  -1.078090
                                CHANNELS 3 Zrotation Xrotation Yrotation
                                JOINT LeftFinger31
                                {
                                    OFFSET   4.646930   0.000000   0.000000
                                    CHANNELS 3 Zrotation Xrotation Yrotation
                                    JOINT LeftFinger32
                                    {
                                        OFFSET   2.323470   0.000000   0.000000
                                        CHANNELS 3 Zrotation Xrotation Yrotation
                                        End Site
                                        {
                                            OFFSET   2.273050   0.000000   0.000000
                                        }
                                    }
                                }
                            }
                            JOINT LeftFinger4
                            {
                                OFFSET   7.435090   0.000000  -3.252850
                                CHANNELS 3 Zrotation Xrotation Yrotation
                                JOINT LeftFinger41
                                {
                                    OFFSET   3.717550   0.000000   0.000000
                                    CHANNELS 3 Zrotation Xrotation Yrotation
                                    JOINT LeftFinger42
                                    {
                                        OFFSET   1.858770   0.000000   0.000000
                                        CHANNELS 3 Zrotation Xrotation Yrotation
                                        End Site
                                        {
                                            OFFSET   1.818440   0.000000   0.000000
                                        }
                                    }
                                }
                            }
                        }
                    }
                }
            }
            JOINT RightCollar
            {
                OFFSET  -3.911900  19.017000  -0.467063
                CHANNELS 3 Zrotation Xrotation Yrotation
                JOINT RightShoulder
                {
                    OFFSET -10.383700   0.000023   0.000000
                    CHANNELS 3 Zrotation Xrotation Yrotation
                    JOINT RightElbow
                    {
                        OFFSET -26.662100   0.001246   0.001011
                        CHANNELS 3 Zrotation Xrotation Yrotation
                        JOINT RightWrist
                        {
                            OFFSET -28.869000  -0.000026  -0.000078
                            CHANNELS 3 Zrotation Xrotation Yrotation
                            JOINT RightFinger0
                            {
                                OFFSET  -2.044660  -2.323490   3.252850
                                CHANNELS 3 Zrotation Xrotation Yrotation
                                JOINT RightFinger01
                                {
                                    OFFSET  -3.088130   0.000000   0.000000
                                    CHANNELS 3 Zrotation Xrotation Yrotation
                                    JOINT RightFinger02
                                    {
                                        OFFSET  -2.639460   0.000000   0.000000
                                        CHANNELS 3 Zrotation Xrotation Yrotation
                                        End Site
                                        {
                                            OFFSET  -2.582190   0.000000   0.000000
                                        }
                                    }
                                }
                            }
                            JOINT RightFinger1
                            {
                                OFFSET  -8.364480   0.000000   3.252850
                                CHANNELS 3 Zrotation Xrotation Yrotation
                                JOINT RightFinger11
                                {
                                    OFFSET  -4.646920   0.000000   0.000000
                                    CHANNELS 3 Zrotation Xrotation Yrotation
                                    JOINT RightFinger12
                                    {
                                        OFFSET  -2.323470   0.000000   0.000000
                                        CHANNELS 3 Zrotation Xrotation Yrotation
                                        End Site
                                        {
                                            OFFSET  -2.273050   0.000000   0.000000
                                        }
                                    }
                                }
                            }
                            JOINT RightFinger2
                            {
                                OFFSET  -8.364480   0.000000   1.078090
                                CHANNELS 3 Zrotation Xrotation Yrotation
                                JOINT RightFinger21
                                {
                                    OFFSET  -5.111620   0.000000   0.000000
                                    CHANNELS 3 Zrotation Xrotation Yrotation
                                    JOINT RightFinger22
                                    {
                                        OFFSET  -2.788160   0.000000   0.000000
                                        CHANNELS 3 Zrotation Xrotation Yrotation
                                        End Site
                                        {
                                            OFFSET  -2.727660   0.000000   0.000000
                                        }
                                    }
                                }
                            }
                            JOINT RightFinger3
                            {
                                OFFSET  -7.899780   0.000000  -1.078090
                                CHANNELS 3 Zrotation Xrotation Yrotation
                                JOINT RightFinger31
                                {
                                    OFFSET  -4.646930   0.000000   0.000000
                                    CHANNELS 3 Zrotation Xrotation Yrotation
                                    JOINT RightFinger32
                                    {
                                        OFFSET  -2.323470   0.000000   0.000000
                                        CHANNELS 3 Zrotation Xrotation Yrotation
                                        End Site
                                        {
                                            OFFSET  -2.273050   0.000000   0.000000
                                        }
                                    }
                                }
                            }
                            JOINT RightFinger4
                            {
                                OFFSET  -7.435090   0.000000  -3.252850
                                CHANNELS 3 Zrotation Xrotation Yrotation
                                JOINT RightFinger41
                                {
                                    OFFSET  -3.717550   0.000000   0.000000
                                    CHANNELS 3 Zrotation Xrotation Yrotation
                                    JOINT RightFinger42
                                    {
                                        OFFSET  -1.858760   0.000000   0.000000
                                        CHANNELS 3 Zrotation Xrotation Yrotation
                                        End Site
                                        {
                                            OFFSET  -1.818440   0.000000   0.000000
                                        }
                                    }
                                }
                            }
                        }
                    }
                }
            }
        }
    }
    JOINT LeftHip
    {
        OFFSET   9.783010   0.000000   0.000000
        CHANNELS 3 Zrotation Xrotation Yrotation
        JOINT LeftKnee
        {
            OFFSET   0.000073 -41.789100   0.001749
            CHANNELS 3 Zrotation Xrotation Yrotation
            JOINT LeftAnkle
            {
                OFFSET   0.000111 -41.133200  -0.000179
                CHANNELS 3 Zrotation Xrotation Yrotation
                JOINT LeftToe
                {
                    OFFSET   0.000000  -6.358960  14.674500
                    CHANNELS 3 Zrotation Xrotation Yrotation
                    End Site
                    {
                        OFFSET   0.000000   0.000000   3.913200
                    }
                }
            }
        }
    }
    JOINT RightHip
    {
        OFFSET  -9.783010   0.000000   0.000000
        CHANNELS 3 Zrotation Xrotation Yrotation
        JOINT RightKnee
        {
            OFFSET   0.000424 -41.789200   0.005205
            CHANNELS 3 Zrotation Xrotation Yrotation
            JOINT RightAnkle
            {
                OFFSET   0.000000 -41.133200  -0.000155
                CHANNELS 3 Zrotation Xrotation Yrotation
                JOINT RightToe
                {
                    OFFSET   0.000000  -6.358960  14.674500
                    CHANNELS 3 Zrotation Xrotation Yrotation
                    End Site
                    {
                        OFFSET   0.000000   0.000000   3.913200
                    }
                }
            }
        }
    }
}
MOTION
Frames: 6
Frame Time:   0.016667
 -0.320024  89.584200   1.374900  -2.268040  -6.393030  -2.372220   0.848614   3.354170   0.180155   1.690990   6.710620   0.311222   0.224857   0.472407  -0.007601   0.382009   0.958094   4.178530  -4.950440  -1.464750   4.504230 -74.733600  15.808900  -0.015672  -2.087980  -6.379460 -11.692100  10.660100  -3.107130   3.347940  36.217000  29.950600 -58.126300 -34.937500  -0.007560  -0.000339 -12.468800  -0.011916  -0.000124 -21.993300   4.278650 -10.421300 -18.313800  -0.004260  -0.004006 -12.819700   0.004372  -0.013878 -23.501300   1.550150  -3.579670 -23.549500  -0.006093  -0.008171 -15.692300   0.003560  -0.006370 -24.411300   1.615500  -3.554460 -24.461500  -0.003438  -0.004139 -16.298200  -0.005123  -0.003316 -27.001100   1.693660  -3.315130 -40.574900   0.000000  -0.010188 -27.022900   0.002824  -0.000000   8.445720   0.908398   6.106940  71.942400   6.344760  -3.703150   1.021950  -9.695940   7.077540 -14.164600  -5.165890   2.705370 -37.744100  32.917100  66.414700  32.564500   0.011100  -0.007016  11.281300   0.004929   0.011478  30.382100   9.723320  16.078500  25.983700   0.004771  -0.001108  18.188600   0.001279  -0.003244  28.377100   4.540400   8.314720  39.214200  -0.003802  -0.001867  26.116700   0.000134   0.010976  27.574900   3.347050   6.391290  30.558000  -0.001508   0.005575  20.351600   0.000370   0.003740  34.267600   0.404297   0.595812  51.404600  -0.005429   0.008008  34.235400   0.006814   0.002498   1.706330   8.687530   4.718240   1.074180   0.085462   4.624730  -1.372270  -3.234690   0.848470  -0.000000   0.000000   0.000000   2.299860   8.101200   2.261660  -0.041599   1.261030  -7.306890  -1.557440  -3.959220  -1.449600   0.000000   0.000000   0.000000
 -0.320137  89.584200   1.383750  -2.266280  -6.397580  -2.356350   0.848503   3.355090   0.178561   1.690870   6.712430   0.308012   0.228612   0.483947  -0.007599   0.384654   0.981544   4.194300  -4.953880  -1.464800   4.504270 -74.745400  15.802800  -0.017550  -2.083500  -6.379660 -11.692100  10.653100  -3.128380   3.343270  36.216000  29.957500 -58.132800 -34.937400  -0.007555  -0.000345 -12.468900  -0.011916  -0.000120 -21.993200   4.278800 -10.421300 -18.313700  -0.004261  -0.004003 -12.819700   0.004372  -0.013881 -23.502800   1.550160  -3.569550 -23.550900  -0.006090  -0.008168 -15.690400   0.003559  -0.006367 -24.408100   1.610610  -3.544610 -24.458000  -0.003437  -0.004136 -16.292900  -0.005128  -0.003312 -26.999300   1.693720  -3.319080 -40.572300   0.000000  -0.010186 -27.021200   0.002818  -0.000000   8.446380   0.903133   6.111810  71.992000   6.373310  -3.676610   0.999872  -9.676140   7.105410 -14.173900  -5.165970   2.687050 -37.752300  32.927600  66.427200  32.559800   0.011096  -0.006999  11.279300   0.004928   0.011483  30.390100   9.726680  16.075800  25.990700   0.004774  -0.001111  18.193500   0.001281  -0.003244  28.377000   4.540490   8.314760  39.216300  -0.003800  -0.001870  26.118100   0.000133   0.010980  27.576600   3.347040   6.391290  30.570600  -0.001505   0.005568  20.360000   0.000367   0.003736  34.276300   0.403083   0.592783  51.417600  -0.005435   0.008003  34.244000   0.006808   0.002496   1.706600   8.688950   4.715720   1.069790   0.096720   4.627080  -1.373480  -3.242880   0.833564   0.000000   0.000000  -0.000000   2.291290   8.120080   2.265570  -0.032456   1.243950  -7.313150  -1.558390  -3.959290  -1.461420  -0.000000   0.000000  -0.000000
 -0.320249  89.584200   1.397760  -2.264000  -6.406180  -2.334300   0.848387   3.357940   0.176967   1.690730   6.718130   0.304803   0.234673   0.503291  -0.007590   0.389547   1.020810   4.221220  -4.961110  -1.464850   4.504360 -74.761600  15.796700  -0.026376  -2.074650  -6.379860 -11.692100  10.644900  -3.149630   3.336360  36.221100  29.973900 -58.148000 -34.937300  -0.007545  -0.000351 -12.469000  -0.011914  -0.000110 -21.993000   4.279020 -10.421300 -18.313700  -0.004262  -0.003996 -12.819600   0.004372  -0.013887 -23.504200   1.550180  -3.559430 -23.552400  -0.006081  -0.008159 -15.685900   0.003555  -0.006361 -24.400300   1.605710  -3.534760 -24.449800  -0.003430  -0.004126 -16.283600  -0.005144  -0.003303 -26.992100   1.693860  -3.325730 -40.561800   0.000000  -0.010178 -27.014200   0.002805   0.000000   8.447500   0.893252   6.119140  72.069900   6.431990  -3.636820   0.966690  -9.648530   7.152610 -14.187100  -5.166070   2.665580 -37.764800  32.944500  66.449100  32.549100   0.011093  -0.006982  11.274500   0.004922   0.011488  30.404500   9.734100  16.073300  26.003500   0.004783  -0.001114  18.202500   0.001283  -0.003243  28.377000   4.540660   8.314790  39.229900  -0.003797  -0.001878  26.127100   0.000132   0.010994  27.580600   3.347020   6.391290  30.597600  -0.001498   0.005550  20.378000   0.000357   0.003724  34.293900   0.400071   0.586623  51.443900  -0.005449   0.007989  34.261600   0.006789   0.002490   1.706600   8.698780   4.710530   1.062520   0.107978   4.634150  -1.375600  -3.251090   0.810967  -0.000000   0.000000  -0.000000   2.282060   8.148520   2.271410  -0.023245   1.226860  -7.322710  -1.559690  -3.959910  -1.477950  -0.000000   0.000000  -0.000000
 -0.318232  89.584100   1.407560  -2.263540  -6.415070  -2.326540   0.848274   3.362770   0.179658   1.690340   6.727840   0.310151   0.239245   0.518900  -0.007570   0.394703   1.052390   4.241570  -4.970490  -1.464840   4.504500 -74.767500  15.802500  -0.045836  -2.063890  -6.378820 -11.694600  10.642800  -3.139290   3.333470  36.240800  30.008600 -58.168700 -34.937300  -0.007539  -0.000335 -12.469100  -0.011912  -0.000095 -21.992200   4.278960 -10.432800 -18.313700  -0.004266  -0.003987 -12.819600   0.004376  -0.013895 -23.493200   1.556870  -3.576590 -23.541700  -0.006069  -0.008148 -15.677500   0.003546  -0.006354 -24.384500   1.612200  -3.551850 -24.434300  -0.003418  -0.004109 -16.272800  -0.005176  -0.003289 -26.972800   1.694060  -3.332580 -40.532900   0.000000  -0.010162 -26.994900   0.002776  -0.000000   8.448050   0.882625   6.122300  72.123700   6.506450  -3.615230   0.948590  -9.642120   7.190080 -14.193900  -5.165980   2.661920 -37.771600  32.951800  66.473000  32.534600   0.011097  -0.007012  11.267300   0.004894   0.011488  30.419900   9.744960  16.079700  26.017900   0.004797  -0.001111  18.212600   0.001282  -0.003241  28.378100   4.540890   8.314760  39.266300  -0.003800  -0.001890  26.151400   0.000136   0.011016  27.587300   3.347010   6.390210  30.635700  -0.001488   0.005524  20.403300   0.000340   0.003705  34.316500   0.395105   0.578714  51.477700  -0.005472   0.007969  34.284100   0.006757   0.002479   1.705220   8.728180   4.702320   1.057190   0.077939   4.647480  -1.377170  -3.238470   0.798308   0.000000   0.000000   0.000000   2.280990   8.164830   2.275170  -0.023074   1.227200  -7.329590  -1.560050  -3.964040  -1.482220  -0.000000   0.000000   0.000000
 -0.314892  89.583800   1.416140  -2.263830  -6.425490  -2.322770   0.848139   3.369700   0.183857   1.689820   6.741730   0.318465   0.243300   0.534841  -0.007546   0.400062   1.084650   4.267680  -4.980700  -1.464820   4.504640 -74.768500  15.818100  -0.071271  -2.053110  -6.375660 -11.699600  10.641800  -3.128950   3.330040  36.257000  30.039300 -58.178700 -34.937200  -0.007530  -0.000304 -12.469100  -0.011908  -0.000080 -21.991400   4.278810 -10.445900 -18.313800  -0.004272  -0.003974 -12.819700   0.004382  -0.013905 -23.481800   1.566250  -3.600080 -23.531000  -0.006053  -0.008132 -15.671600   0.003535  -0.006343 -24.372900   1.622110  -3.575290 -24.423500  -0.003402  -0.004086 -16.266000  -0.005218  -0.003272 -26.958700   1.694270  -3.336730 -40.511800   0.000000  -0.010141 -26.980800   0.002756   0.000000   8.447960   0.871466   6.126690  72.169800   6.585810  -3.597120   0.933304  -9.633460   7.232330 -14.196900  -5.165310   2.661400 -37.782100  32.959500  66.497700  32.517000   0.011104  -0.007043  11.258500   0.004854   0.011486  30.432800   9.755380  16.089100  26.030300   0.004814  -0.001108  18.221200   0.001281  -0.003240  28.379600   4.541040   8.314730  39.306300  -0.003804  -0.001907  26.178000   0.000142   0.011045  27.594200   3.347000   6.389130  30.673600  -0.001475   0.005490  20.428600   0.000317   0.003681  34.339200   0.389914   0.570764  51.511700  -0.005503   0.007942  34.306700   0.006715   0.002466   1.703170   8.759270   4.696910   1.054270   0.047900   4.662520  -1.379620  -3.225850   0.786943   0.000000   0.000000   0.000000   2.280950   8.177620   2.277040  -0.022830   1.229700  -7.333170  -1.560260  -3.971260  -1.487290  -0.000000   0.000000  -0.000000
 -0.312602  89.583600   1.422900  -2.266410  -6.436870  -2.319210   0.848010   3.378460   0.187199   1.689360   6.759300   0.324989   0.246425   0.551436  -0.007524   0.404814   1.118350   4.305710  -4.989750  -1.464830   4.504780 -74.764800  15.843800  -0.098754  -2.045500  -6.368290 -11.704600  10.654400  -3.131870   3.322530  36.263400  30.047200 -58.171400 -34.938600  -0.007512  -0.000272 -12.468800  -0.011903  -0.000076 -22.000700   4.277100 -10.447900 -18.321000  -0.004277  -0.003957 -12.824700   0.004387  -0.013920 -23.488900   1.570300  -3.608270 -23.538500  -0.006030  -0.008111 -15.676600   0.003524  -0.006328 -24.373500   1.629300  -3.583610 -24.424700  -0.003385  -0.004055 -16.266800  -0.005268  -0.003251 -26.966000   1.694430  -3.333880 -40.522800  -0.000038  -0.010116 -26.988100   0.002763   0.000000   8.447140   0.861158   6.135780  72.207700   6.649560  -3.578980   0.916564  -9.605390   7.285330 -14.192300  -5.157510   2.667710 -37.803200  32.977500  66.516400  32.496500   0.011107  -0.007023  11.248200   0.004820   0.011478  30.436400   9.761050  16.095300  26.034000   0.004831  -0.001109  18.223800   0.001282  -0.003243  28.379700   4.540950   8.320090  39.331200  -0.003806  -0.001927  26.194600   0.000145   0.011080  27.598100   3.346960   6.392660  30.695300  -0.001459   0.005448  20.443100   0.000291   0.003652  34.354300   0.386496   0.565471  51.534200  -0.005541   0.007909  34.321800   0.006665   0.002450   1.701830   8.772480   4.697100   1.052910   0.057749   4.674570  -1.384470  -3.231120   0.774237   0.000000   0.000000   0.000000   2.288160   8.184890   2.272410  -0.032790   1.246620  -7.317390  -1.556620  -3.981590  -1.504110  -0.000000   0.000000   0.000000
